<?xml version="1.0" encoding="UTF-8" standalone="no"?>
<!-- Created with Inkscape (http://www.inkscape.org/) -->

<svg
   width="28.039965"
   height="30"
   viewBox="0 0 28.039965 30"
   version="1.1"
   id="svg1"
   xml:space="preserve"
   xmlns="http://www.w3.org/2000/svg"
   xmlns:svg="http://www.w3.org/2000/svg"><defs
     id="defs1" /><g
     id="layer1"
     style="display:inline"
     transform="matrix(1.0643351,0,0,1.0643351,-3.0094075,-1.0643351)"><rect
       style="display:inline;fill:#eaecef;fill-opacity:1;stroke-width:0.0489339"
       id="rect2"
       width="25.365395"
       height="13"
       x="3.8071268"
       y="16.186611"
       ry="0.74986607" /><path
       d="m 4.7553093,15.070576 2.6754861,-3.95702 H 3.8071346 v 3.95702 z"
       style="display:inline;fill:#eaecef;fill-opacity:1;stroke-width:0.052714"
       id="path18" /><path
       d="m 28.022829,11.113556 -2.675488,3.95702 h 3.825211 v -3.95702 z"
       style="display:inline;fill:#eaecef;fill-opacity:1;stroke-width:0.052714"
       id="path17" /><path
       d="m 19.825339,11.113556 -2.675381,3.95702 h 4.033154 l 2.67538,-3.95702 z"
       style="display:inline;fill:#eaecef;fill-opacity:1;stroke-width:0.052714"
       id="path16" /><path
       d="m 12.985725,15.070576 2.675487,-3.95702 h -4.06629 l -2.6753804,3.95702 z"
       style="display:inline;fill:#eaecef;fill-opacity:1;stroke-width:0.052714"
       id="path15" /><path
       d="M 23.713883,1.9427221 27.235305,5.1271102 28.382931,4.8338072 27.403294,1 Z"
       style="display:inline;fill:#eaecef;fill-opacity:1;stroke-width:0.052714"
       id="path22" /><path
       d="M 23.225118,6.1517306 19.703803,2.9674479 15.716056,3.9864054 19.295359,7.1559033 Z"
       style="display:inline;fill:#eaecef;fill-opacity:1;stroke-width:0.052714"
       id="path21" /><path
       d="M 15.257067,8.1877604 11.677764,5.0182625 7.7806194,6.0141508 11.302038,9.1984355 Z"
       style="display:inline;fill:#eaecef;fill-opacity:1;stroke-width:0.052714"
       id="path20" /><path
       d="M 7.2918513,10.223161 3.7704317,7.0387704 2.8275,7.2797476 3.8071346,11.113556 Z"
       style="display:inline;fill:#eaecef;fill-opacity:1;stroke-width:0.052714"
       id="path19" /></g></svg>
